<?xml version="1.0" encoding="UTF-8"?>
<!DOCTYPE svg PUBLIC "-//W3C//DTD SVG 1.1//EN" "http://www.w3.org/Graphics/SVG/1.1/DTD/svg11.dtd">
<svg version="1.2" width="70.81mm" height="17.65mm" viewBox="5281 8302 7081 1765" preserveAspectRatio="xMidYMid" fill-rule="evenodd" stroke-width="28.222" stroke-linejoin="round" xmlns="http://www.w3.org/2000/svg" xmlns:ooo="http://xml.openoffice.org/svg/export" xmlns:xlink="http://www.w3.org/1999/xlink" xmlns:presentation="http://sun.com/xmlns/staroffice/presentation" xmlns:smil="http://www.w3.org/2001/SMIL20/" xmlns:anim="urn:oasis:names:tc:opendocument:xmlns:animation:1.0" xml:space="preserve">
 <defs class="EmbeddedBulletChars">
  <g id="bullet-char-template-57356" transform="scale(0.00048828125,-0.00048828125)">
   <path d="M 580,1141 L 1163,571 580,0 -4,571 580,1141 Z"/>
  </g>
  <g id="bullet-char-template-57354" transform="scale(0.00048828125,-0.00048828125)">
   <path d="M 8,1128 L 1137,1128 1137,0 8,0 8,1128 Z"/>
  </g>
  <g id="bullet-char-template-10146" transform="scale(0.00048828125,-0.00048828125)">
   <path d="M 174,0 L 602,739 174,1481 1456,739 174,0 Z M 1358,739 L 309,1346 659,739 1358,739 Z"/>
  </g>
  <g id="bullet-char-template-10132" transform="scale(0.00048828125,-0.00048828125)">
   <path d="M 2015,739 L 1276,0 717,0 1260,543 174,543 174,936 1260,936 717,1481 1274,1481 2015,739 Z"/>
  </g>
  <g id="bullet-char-template-10007" transform="scale(0.00048828125,-0.00048828125)">
   <path d="M 0,-2 C -7,14 -16,27 -25,37 L 356,567 C 262,823 215,952 215,954 215,979 228,992 255,992 264,992 276,990 289,987 310,991 331,999 354,1012 L 381,999 492,748 772,1049 836,1024 860,1049 C 881,1039 901,1025 922,1006 886,937 835,863 770,784 769,783 710,716 594,584 L 774,223 C 774,196 753,168 711,139 L 727,119 C 717,90 699,76 672,76 641,76 570,178 457,381 L 164,-76 C 142,-110 111,-127 72,-127 30,-127 9,-110 8,-76 1,-67 -2,-52 -2,-32 -2,-23 -1,-13 0,-2 Z"/>
  </g>
  <g id="bullet-char-template-10004" transform="scale(0.00048828125,-0.00048828125)">
   <path d="M 285,-33 C 182,-33 111,30 74,156 52,228 41,333 41,471 41,549 55,616 82,672 116,743 169,778 240,778 293,778 328,747 346,684 L 369,508 C 377,444 397,411 428,410 L 1163,1116 C 1174,1127 1196,1133 1229,1133 1271,1133 1292,1118 1292,1087 L 1292,965 C 1292,929 1282,901 1262,881 L 442,47 C 390,-6 338,-33 285,-33 Z"/>
  </g>
  <g id="bullet-char-template-9679" transform="scale(0.00048828125,-0.00048828125)">
   <path d="M 813,0 C 632,0 489,54 383,161 276,268 223,411 223,592 223,773 276,916 383,1023 489,1130 632,1184 813,1184 992,1184 1136,1130 1245,1023 1353,916 1407,772 1407,592 1407,412 1353,268 1245,161 1136,54 992,0 813,0 Z"/>
  </g>
  <g id="bullet-char-template-8226" transform="scale(0.00048828125,-0.00048828125)">
   <path d="M 346,457 C 273,457 209,483 155,535 101,586 74,649 74,723 74,796 101,859 155,911 209,963 273,989 346,989 419,989 480,963 531,910 582,859 608,796 608,723 608,648 583,586 532,535 482,483 420,457 346,457 Z"/>
  </g>
  <g id="bullet-char-template-8211" transform="scale(0.00048828125,-0.00048828125)">
   <path d="M -4,459 L 1135,459 1135,606 -4,606 -4,459 Z"/>
  </g>
  <g id="bullet-char-template-61548" transform="scale(0.00048828125,-0.00048828125)">
   <path d="M 173,740 C 173,903 231,1043 346,1159 462,1274 601,1332 765,1332 928,1332 1067,1274 1183,1159 1299,1043 1357,903 1357,740 1357,577 1299,437 1183,322 1067,206 928,148 765,148 601,148 462,206 346,322 231,437 173,577 173,740 Z"/>
  </g>
 </defs>
 <g class="Page">
  <g class="com.sun.star.drawing.PolyPolygonShape">
   <g id="id3">
    <rect class="BoundingBox" stroke="none" fill="none" x="11611" y="9018" width="269" height="182"/>
    <path fill="rgb(255,255,255)" stroke="none" d="M 11611,9199 L 11611,9018 11879,9018 11879,9199 11611,9199 Z"/>
   </g>
  </g>
  <g class="com.sun.star.drawing.PolyPolygonShape">
   <g id="id4">
    <rect class="BoundingBox" stroke="none" fill="none" x="6757" y="8638" width="1056" height="1036"/>
    <path fill="none" stroke="rgb(0,158,224)" stroke-width="51" stroke-linejoin="miter" d="M 7136,9647 L 6793,8664 7105,8664 7285,9333 7464,8664 7776,8664 7432,9647 7136,9647 Z"/>
   </g>
  </g>
  <g class="com.sun.star.drawing.PolyPolygonShape">
   <g id="id5">
    <rect class="BoundingBox" stroke="none" fill="none" x="5281" y="8638" width="545" height="1429"/>
    <path fill="none" stroke="rgb(0,158,224)" stroke-width="51" stroke-linejoin="miter" d="M 5799,9686 L 5799,8664 5503,8664 5503,9706 5502,9719 5499,9731 5495,9744 5490,9755 5483,9766 5474,9775 5464,9783 5454,9791 5442,9797 5430,9801 5417,9803 5405,9804 5307,9814 5307,10012 5330,10021 5353,10028 5378,10034 5403,10037 5427,10040 5452,10040 5477,10039 5502,10035 5526,10030 5550,10024 5575,10015 5598,10006 5619,9994 5640,9981 5661,9966 5680,9951 5698,9933 5715,9915 5730,9896 5744,9875 5757,9854 5768,9831 5777,9808 5785,9784 5791,9760 5795,9736 5798,9711 5799,9686 Z"/>
   </g>
  </g>
  <g class="com.sun.star.drawing.PolyPolygonShape">
   <g id="id6">
    <rect class="BoundingBox" stroke="none" fill="none" x="5479" y="8302" width="348" height="252"/>
    <path fill="none" stroke="rgb(0,158,224)" stroke-width="51" stroke-linejoin="miter" d="M 5800,8527 L 5800,8328 5505,8328 5505,8527 5800,8527 Z"/>
   </g>
  </g>
  <g class="com.sun.star.drawing.PolyPolygonShape">
   <g id="id7">
    <rect class="BoundingBox" stroke="none" fill="none" x="7767" y="8608" width="976" height="1135"/>
    <path fill="none" stroke="rgb(0,158,224)" stroke-width="51" stroke-linejoin="miter" d="M 7904,8752 L 7888,8769 7874,8786 7861,8804 7849,8823 7838,8843 7830,8864 7823,8886 7817,8909 7809,8961 7801,9014 7796,9068 7793,9121 7793,9175 7793,9228 7796,9282 7801,9335 7809,9388 7817,9441 7823,9464 7830,9485 7838,9506 7849,9526 7861,9545 7874,9563 7888,9581 7904,9597 7921,9612 7939,9625 7958,9637 7985,9652 8013,9665 8043,9677 8072,9687 8101,9696 8132,9703 8162,9709 8193,9713 8223,9715 8254,9716 8285,9715 8316,9713 8347,9709 8377,9703 8407,9696 8436,9687 8466,9677 8495,9665 8523,9652 8550,9637 8569,9625 8587,9612 8604,9597 8620,9581 8635,9563 8648,9545 8660,9526 8670,9506 8678,9485 8686,9464 8691,9441 8700,9388 8707,9335 8712,9282 8715,9228 8716,9175 8715,9121 8712,9068 8707,9014 8700,8961 8691,8909 8686,8886 8678,8864 8670,8843 8660,8823 8648,8804 8635,8786 8620,8769 8604,8752 8587,8738 8569,8724 8550,8712 8523,8697 8495,8684 8466,8672 8436,8662 8407,8654 8377,8646 8347,8640 8316,8636 8285,8634 8254,8634 8223,8634 8193,8636 8162,8640 8132,8646 8101,8654 8072,8662 8043,8672 8013,8684 7985,8697 7958,8712 7939,8724 7921,8738 7904,8752 Z"/>
   </g>
  </g>
  <g class="com.sun.star.drawing.PolyPolygonShape">
   <g id="id8">
    <rect class="BoundingBox" stroke="none" fill="none" x="8081" y="8844" width="349" height="663"/>
    <path fill="none" stroke="rgb(0,158,224)" stroke-width="51" stroke-linejoin="miter" d="M 8150,8913 L 8139,8925 8129,8939 8121,8953 8115,8968 8110,8984 8107,9001 8107,9017 8107,9175 8107,9333 8107,9350 8110,9366 8115,9382 8121,9397 8129,9411 8139,9425 8150,9438 8162,9448 8175,9458 8191,9466 8206,9472 8222,9477 8239,9480 8255,9480 8271,9480 8288,9477 8303,9472 8319,9466 8334,9458 8348,9448 8360,9438 8371,9425 8381,9411 8388,9397 8395,9382 8399,9366 8402,9350 8403,9333 8403,9175 8403,9017 8402,9001 8399,8984 8395,8968 8388,8953 8381,8939 8371,8925 8360,8913 8348,8902 8334,8892 8319,8884 8303,8878 8288,8873 8271,8870 8255,8870 8239,8870 8222,8873 8206,8878 8191,8884 8175,8892 8162,8902 8150,8913 Z"/>
   </g>
  </g>
  <g class="com.sun.star.drawing.PolyPolygonShape">
   <g id="id9">
    <rect class="BoundingBox" stroke="none" fill="none" x="9498" y="8638" width="839" height="1036"/>
    <path fill="none" stroke="rgb(0,158,224)" stroke-width="51" stroke-linejoin="miter" d="M 9525,8928 L 9524,8955 9524,8982 9525,9009 9528,9036 9534,9064 9539,9084 9546,9103 9555,9122 9564,9140 9576,9158 9588,9174 9602,9189 9617,9203 9634,9215 9651,9227 9669,9237 9688,9245 9707,9252 9728,9257 9749,9261 9769,9263 9947,9273 9958,9274 9968,9277 9978,9281 9987,9287 9995,9294 10002,9302 10008,9311 10012,9321 10015,9332 10015,9342 10015,9353 10012,9364 10008,9374 10002,9383 9995,9391 9987,9398 9978,9404 9968,9408 9958,9410 9947,9411 9543,9411 9543,9647 10047,9647 10068,9646 10088,9643 10108,9639 10129,9634 10148,9626 10167,9618 10185,9608 10201,9596 10217,9582 10233,9569 10246,9553 10258,9536 10270,9519 10279,9501 10287,9482 10293,9463 10300,9436 10305,9410 10309,9382 10310,9355 10310,9328 10308,9301 10305,9273 10300,9246 10294,9227 10288,9207 10279,9189 10269,9171 10258,9152 10245,9136 10231,9122 10216,9108 10200,9095 10183,9083 10164,9074 10145,9065 10126,9058 10105,9053 10085,9049 10065,9047 9887,9036 9876,9036 9866,9034 9856,9030 9847,9024 9839,9016 9832,9008 9826,8999 9822,8989 9820,8979 9819,8968 9820,8957 9822,8947 9826,8937 9832,8927 9839,8920 9847,8912 9856,8907 9866,8903 9876,8900 9887,8899 10232,8899 10232,8664 9787,8664 9766,8664 9745,8667 9725,8671 9704,8677 9685,8684 9667,8692 9649,8703 9632,8715 9616,8728 9601,8742 9587,8757 9575,8774 9564,8791 9555,8809 9546,8828 9540,8848 9533,8874 9528,8901 9525,8928 Z"/>
   </g>
  </g>
  <g class="com.sun.star.drawing.PolyPolygonShape">
   <g id="id10">
    <rect class="BoundingBox" stroke="none" fill="none" x="8796" y="8638" width="644" height="1036"/>
    <path fill="none" stroke="rgb(0,158,224)" stroke-width="51" stroke-linejoin="miter" d="M 9413,8958 L 9216,8958 9203,8959 9190,8961 9178,8965 9167,8971 9156,8979 9146,8987 9138,8997 9130,9008 9125,9019 9121,9031 9119,9043 9118,9057 9118,9647 8822,9647 8822,8664 9118,8664 9118,8821 9128,8802 9139,8784 9152,8767 9165,8750 9181,8735 9197,8722 9214,8709 9232,8698 9251,8689 9272,8680 9292,8674 9313,8669 9334,8665 9355,8664 9377,8664 9413,8664 9413,8958 Z"/>
   </g>
  </g>
  <g class="com.sun.star.drawing.PolyPolygonShape">
   <g id="id11">
    <rect class="BoundingBox" stroke="none" fill="none" x="9652" y="8304" width="571" height="290"/>
    <path fill="none" stroke="rgb(0,158,224)" stroke-width="51" stroke-linejoin="miter" d="M 9789,8567 L 10084,8567 10183,8330 10006,8330 9936,8495 9868,8330 9691,8330 9789,8567 Z"/>
   </g>
  </g>
  <g class="com.sun.star.drawing.PolyPolygonShape">
   <g id="id12">
    <rect class="BoundingBox" stroke="none" fill="none" x="5876" y="8638" width="899" height="1036"/>
    <path fill="none" stroke="rgb(0,158,224)" stroke-width="51" stroke-linejoin="miter" d="M 6679,8733 L 6693,8748 6706,8764 6717,8781 6726,8800 6734,8818 6745,8858 6748,8879 6748,8899 6748,9647 6227,9647 6203,9646 6155,9639 6131,9633 6085,9614 6063,9603 6043,9591 6023,9576 5972,9525 5958,9505 5934,9464 5916,9418 5910,9395 5902,9347 5902,9323 5902,9298 5910,9251 5923,9204 5934,9182 5945,9160 5958,9139 5972,9120 5988,9101 6005,9084 6023,9068 6063,9041 6085,9030 6107,9020 6155,9006 6178,9001 6203,8998 6227,8998 6394,8998 6404,8997 6414,8994 6423,8989 6432,8983 6439,8976 6445,8968 6449,8959 6452,8949 6453,8938 6452,8928 6449,8919 6445,8909 6439,8900 6432,8893 6423,8888 6414,8883 6404,8881 6394,8880 6059,8880 6059,8664 6511,8664 6532,8664 6553,8667 6574,8671 6593,8678 6612,8685 6631,8695 6648,8706 6664,8719 6679,8733 Z"/>
   </g>
  </g>
  <g class="com.sun.star.drawing.PolyPolygonShape">
   <g id="id13">
    <rect class="BoundingBox" stroke="none" fill="none" x="6171" y="9188" width="310" height="270"/>
    <path fill="none" stroke="rgb(0,158,224)" stroke-width="51" stroke-linejoin="miter" d="M 6454,9214 L 6306,9214 6292,9214 6278,9217 6264,9222 6251,9228 6239,9236 6228,9245 6219,9256 6211,9268 6205,9280 6200,9294 6197,9308 6197,9322 6197,9337 6200,9351 6205,9364 6211,9377 6219,9389 6228,9399 6239,9409 6251,9416 6264,9423 6278,9427 6292,9430 6306,9431 6454,9431 6454,9214 Z"/>
   </g>
  </g>
  <g class="com.sun.star.drawing.PolyPolygonShape">
   <g id="id14">
    <rect class="BoundingBox" stroke="none" fill="none" x="10377" y="8601" width="926" height="1074"/>
    <path fill="none" stroke="rgb(0,158,224)" stroke-width="51" stroke-linejoin="miter" d="M 11275,9225 L 11276,9155 11275,9107 11275,9106 11274,9025 11274,9014 11273,9002 11273,8996 11270,8968 11264,8935 11254,8889 11247,8865 11232,8830 11225,8814 11216,8800 11200,8777 11166,8736 11147,8719 11126,8703 11105,8689 11076,8673 11046,8660 11018,8650 10988,8643 10936,8633 10908,8630 10876,8627 10838,8627 10784,8629 10754,8633 10724,8638 10677,8650 10658,8657 10640,8664 10613,8678 10589,8692 10567,8709 10523,8748 10508,8765 10493,8784 10480,8804 10468,8824 10456,8845 10448,8865 10440,8887 10426,8931 10418,8971 10409,9027 10404,9077 10403,9130 10403,9189 10407,9246 10414,9299 10421,9333 10441,9403 10463,9453 10473,9473 10485,9493 10498,9512 10512,9530 10529,9547 10545,9562 10564,9577 10583,9589 10605,9603 10628,9614 10653,9624 10677,9632 10702,9638 10727,9643 10753,9647 10779,9648 11215,9648 11215,9413 10862,9413 10846,9412 10828,9409 10812,9405 10797,9399 10782,9390 10768,9381 10756,9371 10744,9359 10734,9347 10725,9333 10717,9318 10711,9303 10707,9287 10704,9271 10704,9254 10704,9225 11275,9225 Z"/>
   </g>
  </g>
  <g class="com.sun.star.drawing.PolyPolygonShape">
   <g id="id15">
    <rect class="BoundingBox" stroke="none" fill="none" x="10678" y="8814" width="349" height="231"/>
    <path fill="none" stroke="rgb(0,158,224)" stroke-width="51" stroke-linejoin="miter" d="M 11000,9018 L 11000,8982 10999,8965 10996,8948 10990,8933 10983,8918 10974,8903 10963,8890 10952,8878 10939,8867 10924,8858 10909,8851 10893,8845 10877,8841 10860,8840 10844,8840 10827,8841 10811,8845 10795,8851 10780,8858 10765,8867 10752,8878 10740,8890 10730,8903 10721,8918 10714,8933 10709,8948 10705,8965 10704,8982 10704,9018 11000,9018 Z"/>
   </g>
  </g>
  <g class="com.sun.star.drawing.PolyPolygonShape">
   <g id="id16">
    <rect class="BoundingBox" stroke="none" fill="none" x="11345" y="8302" width="1017" height="1370"/>
    <path fill="none" stroke="rgb(0,158,224)" stroke-width="51" stroke-linejoin="miter" d="M 11371,9645 L 11371,8328 11689,8328 11689,8982 11926,8664 12269,8664 11960,9080 12314,9645 11967,9645 11689,9205 11689,9645 11371,9645 Z"/>
   </g>
  </g>
  <g class="com.sun.star.drawing.PolyPolygonShape">
   <g id="id17">
    <rect class="BoundingBox" stroke="none" fill="none" x="9060" y="8845" width="90" height="102"/>
    <path fill="rgb(255,255,255)" stroke="none" d="M 9060,8845 L 9060,8946 9149,8946 9149,8845 9060,8845 Z"/>
   </g>
  </g>
  <g class="com.sun.star.drawing.PolyPolygonShape">
   <g id="id18">
    <rect class="BoundingBox" stroke="none" fill="none" x="11596" y="9012" width="269" height="181"/>
    <path fill="rgb(255,255,255)" stroke="none" d="M 11596,9192 L 11596,9012 11864,9012 11864,9192 11596,9192 Z"/>
   </g>
  </g>
  <g class="com.sun.star.drawing.PolyPolygonShape">
   <g id="id19">
    <rect class="BoundingBox" stroke="none" fill="none" x="9039" y="8921" width="64" height="54"/>
    <path fill="rgb(255,255,255)" stroke="none" d="M 9039,8921 L 9039,8974 9102,8974 9102,8921 9039,8921 Z"/>
   </g>
  </g>
  <g class="com.sun.star.drawing.PolyPolygonShape">
   <g id="id20">
    <rect class="BoundingBox" stroke="none" fill="none" x="9864" y="8496" width="165" height="47"/>
    <path fill="rgb(255,255,255)" stroke="none" d="M 9864,8496 L 9864,8542 10028,8542 10028,8496 9864,8496 Z"/>
   </g>
  </g>
 </g>
</svg>